<?xml version="1.0" encoding="utf-8"?>
<!-- Generator: Adobe Illustrator 21.0.2, SVG Export Plug-In . SVG Version: 6.00 Build 0)  -->
<svg version="1.1" id="Layer_1" xmlns="http://www.w3.org/2000/svg" xmlns:xlink="http://www.w3.org/1999/xlink" x="0px" y="0px"
	 viewBox="0 0 1242 488" enable-background="new 0 0 1242 488" xml:space="preserve">
<g>
	<path fill="#FFFFFF" d="M621.445,431c-205.302,0-410.603-0.011-615.905,0.086c-3.65,0.002-4.645-0.696-4.641-4.545
		C1.021,300.06,1.014,173.58,0.92,47.099c-0.002-3.209,0.353-4.205,3.979-4.204c411.437,0.112,822.874,0.109,1234.311,0.035
		c3.025-0.001,3.878,0.557,3.875,3.779c-0.1,126.814-0.108,253.628,0.026,380.442c0.004,3.731-1.158,3.921-4.261,3.92
		C1033.048,430.992,827.247,431,621.445,431z"/>
	<path d="M115.588,174.044c3.78-0.026,6.267,1.432,8.412,3.727c1.819,1.946,3.977,3.612,5.587,5.707
		c2.528,3.289,4.349,2.631,6.973-0.063c2.2-2.259,2.153-3.491-0.143-5.439c-2.531-2.148-4.834-4.588-7.09-7.034
		c-3.887-4.214-4.113-9.373-0.176-13.421c9.173-9.432,18.469-18.751,27.902-27.922c3.935-3.825,9.074-3.745,13.005,0.096
		c9.411,9.196,18.708,18.51,27.907,27.918c3.856,3.943,3.891,8.991,0.029,12.953c-9.185,9.421-18.51,18.708-27.899,27.927
		c-3.802,3.733-9.06,3.717-13.037,0.149c-2.599-2.333-5.2-4.734-7.383-7.441c-2.346-2.908-3.847-1.814-5.825,0.301
		c-1.753,1.875-3.751,3.185-0.561,5.694c2.729,2.147,5.088,4.799,7.441,7.383c3.881,4.262,3.832,9.195-0.083,13.399
		c-2.269,2.436-4.489,4.991-7.101,7.016c-3.163,2.452-1.395,3.893,0.518,5.67c1.776,1.649,3.117,4.14,5.76,0.751
		c2.033-2.606,4.568-4.849,7.033-7.084c4.416-4.003,9.583-3.993,13.786,0.148c9.017,8.885,17.972,17.834,26.859,26.849
		c4.698,4.766,4.66,9.626-0.087,14.436c-8.775,8.892-17.615,17.72-26.502,26.499c-4.644,4.588-9.769,4.628-14.483,0.001
		c-8.915-8.75-17.759-17.576-26.505-26.496c-4.654-4.746-4.563-9.676-0.029-14.526c1.933-2.067,3.801-4.271,6.042-5.957
		c3.588-2.699,2.672-4.548-0.148-7.272c-2.383-2.301-3.616-1.904-5.51,0.262c-2.188,2.502-4.603,4.818-7.033,7.094
		c-4.149,3.885-9.382,4.147-13.412,0.233c-9.319-9.051-18.515-18.234-27.578-27.542c-4.29-4.405-4.222-9.357,0.07-13.746
		c8.967-9.169,18.111-18.165,27.172-27.241C111.343,175.222,113.565,174.252,115.588,174.044z"/>
	<path d="M950.553,207.876c4.429,1.524,8.759,2.625,12.79,4.701c6.726,3.463,10.829,8.546,10.823,16.511
		c-0.006,8.007-3.672,13.553-10.614,17.236c-6.022,3.195-12.511,4.528-19.213,4.629c-11.154,0.168-22.313,0.085-33.469,0.002
		c-1.412-0.011-3.594,0.999-3.918-1.687c-0.334-2.772,1.873-2.096,3.358-2.366c3.09-0.562,5.153-2.245,5.754-5.414
		c0.34-1.789,0.764-3.604,0.771-5.408c0.06-16.983,0.134-33.966-0.002-50.948c-0.064-7.941-0.701-8.595-8.189-11.238
		c-1.131-0.399-1.654-0.89-1.707-2.033c-0.075-1.598,0.893-2.003,2.21-1.965c14.783,0.423,29.689-1.493,44.326,1.531
		c12.766,2.637,18.1,10.675,15.598,22.172c-1.206,5.544-4.876,8.986-9.779,11.202C956.489,206.067,953.473,206.866,950.553,207.876z
		"/>
	<path d="M746.479,251.194c-22.909-0.057-40.434-17.931-40.078-40.876c0.361-23.273,17.679-40.572,40.549-40.502
		c23.282,0.071,39.985,17.369,39.907,41.329C786.784,233.732,769.122,251.25,746.479,251.194z"/>
	<path d="M1119.132,222.747c6.693-7.788,13.831-13.047,18.779-20.374c2.595-3.844,1.762-6.234-2.582-8.044
		c-1.422-0.593-2.397-1.044-2.111-2.725c0.279-1.645,1.603-1.456,2.728-1.459c7.664-0.022,15.328-0.018,22.992,0
		c1.321,0.003,2.755-0.134,2.885,1.854c0.125,1.913-1.262,2.007-2.558,2.362c-10.295,2.822-15.768,11.859-23.349,18.179
		c-1.529,1.275-0.335,2.362,0.403,3.422c5.998,8.605,11.937,17.252,18.046,25.776c1.956,2.729,4.473,4.996,8.111,5.303
		c1.574,0.133,2.544,0.71,2.315,2.468c-0.221,1.697-1.569,1.47-2.678,1.473c-7.997,0.027-15.994,0.026-23.991,0.003
		c-1.11-0.003-2.508,0.26-2.672-1.448c-0.162-1.684,0.9-2.073,2.37-2.526c4.798-1.48,5.295-2.753,2.471-7.089
		c-3.633-5.577-7.63-10.916-11.318-16.459c-1.58-2.375-2.768-2.009-4.627-0.293c-4.792,4.422-7.052,14.366-4.57,20.386
		c0.903,2.191,2.641,2.874,4.631,3.284c1.468,0.303,3.183,0.228,3.144,2.366c-0.045,2.462-2.015,1.751-3.338,1.762
		c-6.997,0.062-13.995,0.061-20.992-0.005c-1.167-0.011-2.856,0.65-3.147-1.427c-0.291-2.073,1.002-2.429,2.692-2.642
		c3.81-0.48,5.321-2.874,5.318-6.585c-0.022-21.492-0.024-42.984,0.034-64.476c0.013-4.72-2.047-7.141-6.871-7.143
		c-1.448,0-3.08,0.048-3.238-2.176c-0.147-2.07,1.274-2.417,2.73-2.892c4.583-1.495,9.224-2.846,13.708-4.597
		c3.645-1.422,4.826-0.863,4.777,3.361c-0.209,17.991-0.089,35.986-0.089,53.98C1119.132,217.953,1119.132,219.538,1119.132,222.747
		z"/>
	<path d="M210.764,174.123c2.664,0.285,5.037,1.205,7.032,3.218c8.91,8.988,17.922,17.876,26.812,26.884
		c4.494,4.554,4.649,9.553,0.216,14.098c-8.953,9.178-18.033,18.236-27.191,27.211c-4.162,4.08-9.557,4.003-13.773-0.138
		c-9.028-8.868-17.975-17.821-26.851-26.843c-4.422-4.495-4.505-9.672-0.143-14.121c8.975-9.157,18.119-18.149,27.173-27.23
		C205.895,175.339,208.165,174.486,210.764,174.123z"/>
	<path d="M1054,198.984c4.873-3.944,9.214-6.897,14.527-8.127c10.341-2.394,18.473,2.954,19.643,13.388
		c1.32,11.772,0.148,23.619,0.628,35.429c0.163,4.026,1.13,6.885,5.613,7.291c1.542,0.14,2.574,0.671,2.381,2.438
		c-0.225,2.053-1.859,1.562-3.069,1.57c-7.16,0.048-14.321,0.047-21.481,0.004c-1.216-0.007-2.845,0.46-3.035-1.603
		c-0.202-2.201,1.354-2.297,2.911-2.452c3.597-0.358,5.246-2.516,5.381-5.987c0.467-11.968,1.151-23.96-0.534-35.87
		c-0.92-6.507-6.303-9.449-12.59-7.432c-7.316,2.347-10.373,6.486-10.373,14.05c-0.001,9.159,0.1,18.319-0.042,27.475
		c-0.066,4.216,1.067,7.257,5.719,7.787c1.634,0.186,2.412,0.834,2.269,2.527c-0.151,1.783-1.494,1.502-2.588,1.506
		c-7.327,0.027-14.654,0.017-21.981,0.006c-1.181-0.002-2.386,0.016-2.438-1.694c-0.043-1.414,0.555-2.172,1.983-2.301
		c5.01-0.453,6.081-3.84,6.069-8.097c-0.029-10.324,0.026-20.649-0.043-30.972c-0.027-4.055-0.629-7.858-5.975-8.043
		c-1.138-0.039-1.867-0.468-1.921-1.751c-0.064-1.52,0.954-1.891,2.11-2.324c4.357-1.633,8.757-3.18,13.004-5.068
		c3.311-1.472,4.157-0.37,3.858,2.826C1053.885,195.042,1054,196.547,1054,198.984z"/>
	<path d="M332.568,169.6c10.287,0.01,19.286,3.342,27.096,9.957c1.594,1.35,4.04,2.615,1.063,4.907
		c-2.068,1.592-2.775,5.94-7.186,2.297c-12.953-10.698-28.158-11.399-39.86-2.427c-13.868,10.634-16.244,32.701-5.068,47.08
		c10.613,13.654,29.891,15.112,44.512,3.511c1.574-1.249,2.709-4.753,5.975-1.799c4.262,3.855,4.391,4.343-0.051,8.087
		c-13.412,11.303-32.281,13.313-47.097,5.017c-14.068-7.877-22.092-24.664-19.681-41.174c2.642-18.097,14.095-30.756,31.39-34.485
		C326.566,169.945,329.596,169.909,332.568,169.6z"/>
	<path d="M1012.911,244.286c-5.699,4.015-10.897,7.556-17.569,7.931c-6.11,0.344-11.212-1.171-14.324-6.873
		c-3.124-5.723-2.421-12.743,1.823-17.738c5.36-6.308,12.84-8.706,20.469-10.562c10.637-2.588,11.166-3.308,8.961-14.28
		c-0.847-4.213-2.276-7.671-7.337-8.003c-5.136-0.336-8.081,2.328-9.753,6.847c-0.403,1.089-0.655,2.236-1.093,3.309
		c-1.807,4.431-5.729,6.218-9.527,4.387c-3.201-1.544-4.019-5.432-1.882-9.534c0.604-1.159,1.421-2.278,2.366-3.178
		c7.175-6.832,24.696-8.345,32.894-2.998c5.194,3.388,5.784,8.698,5.884,14.067c0.175,9.484,0.037,18.973,0.057,28.46
		c0.005,2.309-0.457,4.808,1.215,6.72c2.224,2.543,4.155,0.455,6.099-0.68c0.643-0.376,1.223-0.285,1.762,0.283
		c0.879,0.926,0.582,1.863-0.015,2.705c-2.789,3.933-6.153,7.141-11.312,7.231C1016.695,252.467,1014.115,249.425,1012.911,244.286z
		"/>
	<path d="M881.632,224.004c-6.492,0.004-12.986,0.113-19.474-0.047c-2.764-0.068-3.384,0.597-2.715,3.405
		c3.786,15.902,21.751,21.244,35.214,10.309c1.721-1.398,2.732-2.673,5.214-0.617c3.277,2.713,2.657,4.241-0.172,6.676
		c-13.266,11.418-34.023,9.647-43.93-3.906c-10.52-14.392-6.859-36.488,7.803-45.395c9.466-5.75,19.488-5.839,28.792,0.102
		c9.749,6.226,12.585,16.209,12.66,27.251c0.019,2.818-1.888,2.19-3.419,2.199C894.948,224.023,888.29,224,881.632,224.004z"/>
	<path d="M581.582,224.002c-6.49,0-12.984,0.135-19.468-0.06c-2.971-0.089-3.174,0.838-2.563,3.459
		c3.705,15.906,21.644,21.183,35.217,10.264c1.421-1.143,2.311-3.043,4.809-0.91c3.106,2.654,3.469,4.251,0.118,7.083
		c-8.964,7.579-22.695,9.84-33.225,4.634c-12.34-6.102-17.166-16.666-16.412-29.922c0.686-12.07,6.19-21.453,17.625-26.152
		c9.179-3.772,18.434-2.955,26.431,3.317c8.386,6.577,10.998,15.856,10.919,26.157c-0.018,2.388-1.487,2.129-2.982,2.129
		C595.228,224.002,588.405,224.002,581.582,224.002z"/>
	<path d="M396.288,251.185c-17.199-0.138-30.303-13.382-30.153-30.476c0.151-17.273,13.614-30.447,30.971-30.307
		c17.032,0.137,30.119,13.588,29.896,30.726C426.78,238.129,413.299,251.321,396.288,251.185z"/>
	<path d="M802.196,200.942c6.806-8.877,14.589-11.589,23.888-10.224c10.435,1.532,17.569,8.919,17.91,19.508
		c0.408,12.638,0.056,25.299,0.254,37.947c0.056,3.584-2.123,3.053-4.23,3.005c-2.184-0.05-4.756,0.818-4.678-3.14
		c0.186-9.485,0.073-18.976,0.048-28.465c-0.005-1.994-0.067-3.994-0.238-5.98c-0.789-9.185-5.782-14.372-14.302-14.928
		c-9.024-0.589-16.083,4.555-17.95,13.161c-1.465,6.751-0.487,13.602-0.679,20.405c-0.15,5.323-0.2,10.66,0.026,15.978
		c0.154,3.632-2.204,3.092-4.259,2.935c-1.986-0.151-4.905,1.312-4.885-2.833c0.089-17.812,0.12-35.624-0.025-53.435
		c-0.033-4.07,2.621-2.957,4.714-3.039c2.24-0.088,4.969-0.706,4.435,3.226C802.034,196.477,802.196,197.94,802.196,200.942z"/>
	<path d="M502.192,200.934c6.73-8.895,14.857-11.767,24.695-10.108c9.375,1.581,16.61,8.634,17.011,18.178
		c0.552,13.13,0.194,26.297,0.309,39.447c0.037,4.213-3.05,2.389-4.97,2.707c-2.55,0.422-3.957-0.291-3.902-3.394
		c0.171-9.654,0.066-19.312,0.051-28.969c-0.003-1.663-0.005-3.332-0.147-4.987c-0.81-9.483-5.88-14.728-14.618-15.181
		c-8.954-0.464-15.898,4.766-17.701,13.493c-0.467,2.261-0.679,4.61-0.699,6.922c-0.078,8.99-0.131,17.983,0.019,26.971
		c0.056,3.364-0.025,5.44-4.563,5.364c-4.276-0.071-4.346-1.99-4.327-5.171c0.099-16.316,0.062-32.633,0.031-48.949
		c-0.006-3.043-0.597-5.677,4.334-5.655c4.588,0.021,4.749,2.111,4.488,5.38C502.13,197.906,502.192,198.84,502.192,200.934z"/>
	<path d="M442.191,200.974c5.971-8.104,13.015-11.03,21.49-10.558c11.647,0.649,19.833,8.3,20.273,19.949
		c0.477,12.641,0.113,25.311,0.272,37.967c0.053,4.21-2.914,2.643-4.875,2.808c-2.079,0.175-4.331,0.633-4.273-2.972
		c0.173-10.657,0.078-21.319,0.053-31.979c-0.027-11.143-5.47-17.383-15.267-17.569c-10.164-0.193-17.419,6.866-17.628,17.573
		c-0.202,10.323-0.187,20.656,0.036,30.978c0.074,3.405-1.097,4.298-4.257,4.079c-2.702-0.188-5.047,0.43-4.982-3.91
		c0.259-17.152,0.237-34.312,0.009-51.465c-0.053-3.962,1.709-4.051,4.751-4.168c3.416-0.131,5.012,0.743,4.426,4.363
		C442.045,197.134,442.191,198.25,442.191,200.974z"/>
	<path d="M641.65,251.195c-14.941-0.1-26.018-8.406-29.914-21.426c-3.929-13.133,1.106-27.251,12.342-34.608
		c10.839-7.097,26.08-6.294,35.807,2.047c1.722,1.477,5.064,2.719,1.661,6.105c-2.428,2.417-3.672,4.117-7.182,0.804
		c-8.737-8.247-20.679-7.731-28.56,0.516c-8.018,8.391-8.255,22.891-0.514,31.434c7.952,8.776,20.067,9.44,29.585,1.825
		c1.421-1.137,2.259-4.646,5.466-1.855c4.114,3.581,4.265,4.043,0.038,7.734C654.628,248.794,647.974,251.372,641.65,251.195z"/>
	<path d="M684.188,218.617c0,4.493-0.029,8.987,0.006,13.48c0.066,8.461,4.547,11.834,12.974,10.391
		c1.366-0.234,4.117-3.582,4.898,0.47c0.577,2.995,0.724,5.989-3.79,7.158c-14.036,3.635-23.116-2.997-23.137-17.387
		c-0.014-9.652-0.115-19.307,0.061-28.956c0.057-3.144-0.691-4.715-4.097-4.18c-2.923,0.459-4.008-0.661-4.093-3.818
		c-0.095-3.532,1.324-4.423,4.365-3.951c3.233,0.502,4.011-1.071,3.805-3.99c-0.209-2.981,0.182-6.01-0.104-8.978
		c-0.349-3.619,0.701-4.873,4.591-4.882c3.895-0.009,4.694,1.246,4.635,4.858c-0.068,4.22-2.067,9.882,1.027,12.307
		c2.613,2.048,7.987,0.778,12.125,0.613c3.48-0.139,5.79,0.211,5.242,4.667c-0.279,2.272-0.834,3.309-3.236,3.215
		c-3.323-0.13-6.694,0.287-9.975-0.108c-4.631-0.558-5.717,1.378-5.378,5.618C684.466,209.608,684.188,214.124,684.188,218.617z"/>
	<path d="M1112.184,307.572c6.763-4.537,11.848-4.908,16.227-1.599c4.172,3.152,5.872,9.33,4.113,14.942
		c-2.346,7.485-10.591,10.553-17.339,6.543c-0.937-0.557-2.674-4.039-3.188,0.446c-0.152,1.326-1.557,0.998-2.479,0.876
		c-1.678-0.222-1.374-1.636-1.378-2.734c-0.026-7.658-0.012-15.316-0.01-22.975c0.001-2.164,0.043-4.329-0.007-6.493
		c-0.037-1.622,0.53-2.491,2.295-2.438c1.715,0.051,1.749,1.223,1.757,2.409C1112.199,300.025,1112.184,303.498,1112.184,307.572z"
		/>
	<path d="M753.551,325.747c-0.696,1.168,0.064,3.663-2.618,3.063c-2.193-0.491-1.506-2.311-1.515-3.655
		c-0.059-9.141-0.056-18.283-0.016-27.424c0.007-1.543-0.51-3.701,2.163-3.53c2.336,0.149,1.555,2.146,1.6,3.451
		c0.108,3.134,0.035,6.274,0.035,10.087c3.914-3.325,7.967-4.804,12.606-3.642c2.508,0.628,4.469,2.154,5.999,4.209
		c3.537,4.751,3.175,12.811-0.745,17.15C766.711,330.273,761.069,330.38,753.551,325.747z"/>
	<path d="M911.083,326.248c-0.956,2.049-0.237,4.212-0.473,6.29c-0.17,1.498,0.648,3.659-2.09,3.577
		c-2.456-0.074-1.668-2.069-1.678-3.359c-0.067-8.295-0.08-16.591,0.01-24.886c0.014-1.279-0.904-3.196,1.357-3.676
		c2.432-0.516,2.286,1.76,2.803,3.203c6.646-4.738,12.404-4.824,16.825-0.448c4.403,4.358,5.017,12.279,1.351,17.421
		C925.192,329.972,919.81,330.546,911.083,326.248z"/>
	<path d="M728.004,319.316c-0.003,2.491-0.003,4.982-0.003,7.473c0,2.816-2.877,2.549-3.223,1.666
		c-1.246-3.179-2.532-1.074-3.837-0.448c-3.164,1.519-6.422,1.611-9.669,0.475c-3.352-1.173-5.085-3.77-5.071-7.227
		c0.013-3.286,1.84-5.639,4.916-6.815c3.342-1.278,6.8-1.319,10.29-0.592c3.087,0.643,3.013-0.992,2.028-3.028
		c-1.437-2.972-4.175-3.603-7.113-3.532c-1.304,0.031-2.594,0.525-3.897,0.776c-1.269,0.245-2.879,1.842-3.479-0.793
		c-0.44-1.936,1.061-2.117,2.324-2.487c8.175-2.394,17.576-1.072,16.748,11.045C727.939,316.987,728.008,318.154,728.004,319.316z"
		/>
	<path d="M970.003,319.435c-0.003,2.492-0.048,4.984,0.011,7.475c0.047,1.985-1.886,2.597-2.484,1.794
		c-2.132-2.86-3.78-0.831-5.813-0.128c-2.868,0.991-5.848,0.954-8.737-0.313c-3.105-1.361-4.62-3.781-4.528-7.059
		c0.093-3.275,1.727-5.712,4.901-6.816c3.193-1.111,6.479-1.309,9.82-0.621c0.92,0.19,2.199,0.723,2.731-0.319
		c0.523-1.024,0.175-2.292-0.592-3.277c-2.688-3.447-6.169-3.151-9.95-2.376c-1.312,0.269-3.662,2.818-4.248-0.641
		c-0.461-2.721,2.335-2.464,3.844-2.829C965.866,301.68,970.008,305.897,970.003,319.435z"/>
	<path d="M857.866,318.006c-1.826,0.003-3.657-0.08-5.476,0.032c-1.25,0.077-3.018-0.73-3.637,0.572
		c-0.648,1.362,0.444,2.813,1.373,4c2.809,3.587,6.955,4.211,11.618,1.71c1.375-0.738,2.907-2.633,4.143-0.391
		c1.122,2.034-1.209,2.726-2.46,3.521c-4.422,2.81-11.043,2.284-14.888-1.038c-4.254-3.676-5.605-10.021-3.297-15.493
		c2.153-5.105,6.525-7.6,12.403-7.078c5.679,0.504,10.579,6.671,9.96,12.318c-0.178,1.622-0.985,1.859-2.272,1.85
		C862.846,317.99,860.356,318.003,857.866,318.006z"/>
	<path d="M792.687,318.002c-1.666,0.003-3.338-0.082-4.997,0.029c-1.411,0.094-3.528-0.767-4.069,0.631
		c-0.669,1.727,0.741,3.501,2.088,4.743c3.395,3.132,7.141,3.168,11.003,0.863c1.366-0.816,2.873-2.528,4.089-0.196
		c0.98,1.88-1.134,2.427-2.241,3.169c-4.429,2.969-10.879,2.655-14.948-0.617c-4.211-3.386-5.723-9.999-3.545-15.506
		c2.013-5.091,6.495-7.739,12.332-7.287c5.797,0.449,10.648,6.488,10.015,12.247c-0.174,1.585-0.89,1.94-2.229,1.928
		C797.685,317.983,795.186,318,792.687,318.002z"/>
	<path d="M1006.472,318.009c1.696,7.367,6.756,9.71,13.053,6.391c1.336-0.704,2.768-2.767,4.157-0.516
		c1.379,2.233-1.167,2.727-2.344,3.497c-4.445,2.907-10.944,2.421-14.936-0.923c-4.093-3.43-5.5-10.182-3.247-15.582
		c2.087-5.001,6.679-7.583,12.496-7.026c5.621,0.539,10.023,6.125,9.761,11.98c-0.106,2.374-1.466,2.179-2.983,2.179
		C1017.138,318.009,1011.847,318.009,1006.472,318.009z"/>
	<path d="M1142.176,318.008c2.339,7.597,7.1,9.641,13.417,6.266c1.352-0.722,2.862-2.628,4.077-0.219
		c0.894,1.772-1.104,2.485-2.232,3.254c-4.392,2.995-11.423,2.483-15.35-1.02c-4.154-3.705-5.344-10.727-2.73-16.112
		c2.409-4.963,7.648-7.376,13.416-6.181c4.986,1.033,9.018,7.023,8.459,12.067c-0.271,2.451-1.833,1.913-3.201,1.926
		C1152.879,318.035,1147.727,318.008,1142.176,318.008z"/>
	<path d="M1075.218,329.197c-7.367,0.056-13.089-5.542-13.031-12.749c0.057-7.077,5.535-12.566,12.622-12.647
		c7.576-0.086,13.124,5.145,13.196,12.444C1088.077,323.617,1082.624,329.141,1075.218,329.197z"/>
	<path d="M989.049,303.811c2.329-0.136,4.761,0.331,6.816,1.947c1.05,0.826,2.956,1.392,1.594,3.415
		c-1.328,1.972-2.506,0.724-3.701-0.155c-3.769-2.771-7.483-2.633-10.829,0.578c-3.236,3.106-3.807,6.909-1.927,10.977
		c2.287,4.949,7.467,6.386,12.551,3.632c1.296-0.702,2.732-2.873,4.165-0.662c1.556,2.401-1.139,3.004-2.437,3.848
		c-4.324,2.81-10.573,2.392-14.479-0.758c-4.317-3.481-5.912-9.075-4.096-14.365C978.614,306.709,982.805,303.78,989.049,303.811z"
		/>
	<path d="M1054.032,329.12c-4.481,0.009-7.016-2.006-7.151-6.512c-0.1-3.313-0.009-6.632-0.11-9.945
		c-0.065-2.118,0.933-4.649-2.53-5.465c-1.28-0.302-1.14-2.534-0.016-2.719c3.717-0.612,2.351-3.302,2.554-5.329
		c0.122-1.227,0.118-2.313,1.8-2.344c1.706-0.031,2.56,0.756,2.27,2.388c-0.777,4.369,1.27,5.567,5.213,4.958
		c1.211-0.187,2.426,0.064,2.426,1.694c0,1.607-1.216,1.957-2.413,1.733c-5.244-0.979-5.549,2.091-5.234,6.003
		c0.212,2.636,0.078,5.303,0.04,7.956c-0.035,2.423,1.083,3.561,3.512,3.888c1.27,0.171,3.742-1.723,3.694,1.398
		C1058.043,329.586,1055.554,328.77,1054.032,329.12z"/>
	<path d="M809.804,316.349c-1.088-2.868,2.524-7.688-3.321-9.523c-0.659-0.207-0.579-2.324,0.496-2.409
		c3.782-0.3,2.65-3.008,2.819-5.109c0.091-1.133-0.148-2.415,1.622-2.481c1.813-0.067,2.412,0.991,2.177,2.506
		c-0.618,3.988,1.09,5.378,4.922,4.816c1.101-0.161,2.488-0.222,2.598,1.48c0.126,1.948-1.304,2.199-2.667,1.965
		c-4.681-0.803-5.181,1.828-4.858,5.483c0.204,2.307,0.076,4.646,0.047,6.97c-0.045,3.553,1.091,5.87,5.233,5.238
		c0.92-0.141,2.048-0.581,2.255,0.97c0.18,1.34-0.386,2.125-1.688,2.623c-4.693,1.795-9.285-1.06-9.614-6.128
		C809.696,320.766,809.804,318.766,809.804,316.349z"/>
	<path d="M828.799,316.363c-1.013-2.936,2.448-7.704-3.325-9.56c-0.651-0.209-0.575-2.334,0.505-2.405
		c3.852-0.253,2.618-3.019,2.812-5.093c0.106-1.133-0.155-2.418,1.619-2.479c1.804-0.063,2.416,0.976,2.182,2.505
		c-0.611,3.988,1.096,5.388,4.937,4.819c1.101-0.163,2.482-0.218,2.59,1.49c0.125,1.966-1.319,2.181-2.673,1.955
		c-4.672-0.782-5.194,1.82-4.851,5.497c0.215,2.306,0.071,4.649,0.032,6.974c-0.06,3.593,1.139,5.844,5.265,5.203
		c0.911-0.141,2.049-0.565,2.243,0.988c0.169,1.349-0.431,2.125-1.716,2.619c-4.683,1.8-9.276-1.076-9.598-6.149
		C828.693,320.74,828.799,318.74,828.799,316.363z"/>
	<path d="M878.415,307.788c1.991-1.845,3.962-3.655,6.792-3.924c1.028-0.098,2.12-0.102,2.327,1.2
		c0.173,1.088,0.57,2.607-1.058,2.866c-8.879,1.416-8.97,7.99-8.821,14.755c0.029,1.331-0.009,2.664-0.021,3.996
		c-0.012,1.354-0.531,2.18-2.046,2.214c-1.455,0.032-2.202-0.618-2.207-2.033c-0.024-6.826-0.021-13.652-0.022-20.479
		c0-1.326,0.472-2.138,1.986-2.299C878.244,303.775,877.1,306.734,878.415,307.788z"/>
	<path d="M942.209,311.523c-0.001,4.823,0.019,9.646-0.014,14.468c-0.009,1.272,0.276,2.779-1.787,2.878
		c-2.214,0.106-2.305-1.299-2.301-2.926c0.02-9.646,0.024-19.291-0.002-28.937c-0.005-1.67,0.185-3.005,2.354-2.876
		c2.076,0.123,1.722,1.678,1.733,2.925C942.236,301.877,942.21,306.7,942.209,311.523z"/>
	<path fill="#FFFFFF" d="M164.503,142.024c1.636,0.083,3.802,1.19,5.631,3.013c4.122,4.11,8.295,8.172,12.335,12.361
		c4.18,4.335,4.301,8.878,0.229,13.196c-4.106,4.354-8.361,8.574-12.689,12.709c-3.92,3.746-8.59,4.007-12.507,0.407
		c-4.769-4.383-9.358-8.99-13.72-13.779c-3.031-3.327-3.364-7.631-0.451-10.967c4.687-5.366,9.986-10.207,15.133-15.158
		C159.784,142.538,161.599,141.958,164.503,142.024z"/>
	<path fill="#FFFFFF" d="M116.495,189.085c2.221,0.172,4.336,0.943,6.07,2.69c4.333,4.366,8.783,8.621,13.027,13.072
		c3.819,4.005,3.821,8.841,0,12.87c-4.118,4.341-8.349,8.583-12.694,12.696c-4.084,3.867-8.862,3.907-12.912,0.075
		c-4.466-4.226-8.839-8.567-13.017-13.076c-3.592-3.877-3.733-8.256-0.232-12.095c4.364-4.785,9.071-9.263,13.714-13.787
		C112.033,189.991,114.082,189.23,116.495,189.085z"/>
	<path fill="#FFFFFF" d="M185.831,258.292c-0.132,2.624-1.071,4.81-2.958,6.658c-4.272,4.185-8.417,8.501-12.719,12.655
		c-3.922,3.786-8.897,3.913-12.883,0.166c-4.475-4.208-8.838-8.552-13.015-13.055c-3.59-3.87-3.562-8.619,0.074-12.524
		c4.185-4.494,8.552-8.835,13.042-13.025c3.829-3.573,8.836-3.54,12.512-0.025c4.561,4.362,8.946,8.909,13.414,13.37
		C184.909,254.119,185.567,256.126,185.831,258.292z"/>
	<path fill="#FFFFFF" d="M928,225.722c0-3.825,0.247-7.671-0.07-11.469c-0.308-3.679,1.2-4.447,4.544-4.323
		c5.999,0.222,11.973,0.436,17.661,2.54c7.808,2.888,11.141,8.312,10.992,17.545c-0.127,7.882-3.909,12.96-11.585,15.546
		c-0.471,0.159-0.951,0.29-1.432,0.414c-15.583,4-20.109,0.564-20.109-15.263C928,229.048,928,227.385,928,225.722z"/>
	<path fill="#FFFFFF" d="M928.195,192.866c0-3.828-0.302-7.686,0.073-11.477c0.519-5.234,2.939-7.196,8.2-7.494
		c5.444-0.308,10.679,0.432,15.268,3.579c9.144,6.272,7.914,21.418-2.119,26.177c-1.628,0.772-3.438,1.234-5.213,1.613
		c-5.227,1.116-11.349,2.576-15.498-0.041C925.987,203.381,928.486,197.124,928.195,192.866z"/>
	<path fill="#FFFFFF" d="M777.362,211.128c-0.489,18.386-13.868,32.068-30.986,31.686c-17.528-0.392-30.819-15.042-30.371-33.477
		c0.436-17.942,14.429-31.772,31.514-31.147C764.656,178.816,777.834,193.362,777.362,211.128z"/>
	<path fill="#FFFFFF" d="M210.803,189.109c2.652,0.424,4.903,1.366,6.738,3.209c4.108,4.127,8.331,8.146,12.318,12.386
		c4.34,4.616,4.165,8.901-0.358,13.535c-3.951,4.048-7.943,8.059-12.001,11.999c-4.347,4.222-9.171,4.252-13.63-0.004
		c-4.212-4.019-8.367-8.11-12.341-12.361c-3.673-3.93-3.826-8.711-0.267-12.575c4.279-4.646,8.893-8.983,13.359-13.457
		C206.363,190.098,208.606,189.549,210.803,189.109z"/>
	<path fill="#FFFFFF" d="M1012.867,229.566c0.005,10.464-1.969,13.416-10.432,15.604c-6.822,1.764-12.38-3.227-11.351-10.194
		c0.968-6.557,13.715-16.164,20.308-15.421c1.498,0.169,1.449,1.063,1.461,2.03C1012.885,224.245,1012.864,226.905,1012.867,229.566
		z"/>
	<path fill="#FFFFFF" d="M877.4,217.391c-5.148-0.005-10.299-0.094-15.444,0.033c-2.534,0.062-3.068-0.698-2.531-3.21
		c2.068-9.675,9.656-16.377,18.688-16.208c8.769,0.164,15.519,6.676,17.346,16.256c0.514,2.693-0.261,3.196-2.614,3.159
		C887.697,217.34,882.548,217.396,877.4,217.391z"/>
	<path fill="#FFFFFF" d="M577.079,217.397c-4.65,0.002-9.316-0.234-13.945,0.073c-4.04,0.267-4.263-1.243-3.276-4.583
		c2.761-9.339,9.965-15.214,18.709-14.881c8.394,0.32,14.705,6.39,16.822,15.674c0.668,2.929,0.215,3.876-2.867,3.765
		C587.38,217.262,582.227,217.396,577.079,217.397z"/>
	<path fill="#FFFFFF" d="M396.947,243.131c-12.083,0.107-21.788-10.009-21.688-22.607c0.097-12.281,9.383-22.184,20.947-22.337
		c11.57-0.153,21.387,9.974,21.606,22.286C418.036,233.11,408.906,243.025,396.947,243.131z"/>
	<path fill="#FFFFFF" d="M1129.089,316.389c0.051,5.22-3.646,9.401-8.312,9.4c-4.479-0.001-8.691-4.444-8.754-9.232
		c-0.064-4.842,3.968-9.25,8.558-9.357C1125.249,307.091,1129.038,311.183,1129.089,316.389z"/>
	<path fill="#FFFFFF" d="M770.124,316.816c-0.12,5.104-3.606,8.924-8.178,8.963c-4.749,0.041-8.963-4.619-8.748-9.674
		c0.214-5.05,4.241-9.063,8.93-8.901C766.874,307.369,770.251,311.429,770.124,316.816z"/>
	<path fill="#FFFFFF" d="M927.386,316.372c0.06,5.414-3.407,9.395-8.192,9.407c-4.561,0.011-8.492-4.236-8.563-9.249
		c-0.072-5.117,3.62-9.236,8.361-9.329C923.814,307.107,927.327,310.945,927.386,316.372z"/>
	<path fill="#FFFFFF" d="M718.611,316.567c1.68,0.987,5.606-1.345,5.463,3.332c-0.107,3.49-3.566,6.138-7.811,6.094
		c-3.199-0.033-6.049-1.266-5.881-4.671C710.62,316.501,714.719,316.679,718.611,316.567z"/>
	<path fill="#FFFFFF" d="M960.654,316.613c1.603,1.017,5.5-1.507,5.597,3.053c0.08,3.735-3.544,6.517-8.032,6.321
		c-3.17-0.138-5.582-1.299-5.546-4.943C952.705,317.911,955.217,316.51,960.654,316.613z"/>
	<path fill="#FFFFFF" d="M848.34,314.998c0.759-4.358,2.635-7.247,6.806-7.911c3.65-0.581,6.009,1.496,7.502,4.582
		c0.963,1.992,0.903,3.478-2.061,3.366C856.626,314.886,852.657,314.998,848.34,314.998z"/>
	<path fill="#FFFFFF" d="M790.211,315.001c-0.66,0-1.353,0.132-1.972-0.025c-1.614-0.41-4.225,1.183-4.698-0.987
		c-0.423-1.941,1.115-4.037,2.935-5.39c2.287-1.7,4.759-2.255,7.397-0.898c2.524,1.298,4.574,3.539,3.972,6.212
		c-0.508,2.255-3.382,0.699-5.164,1.06C791.887,315.134,791.035,315,790.211,315.001z"/>
	<path fill="#FFFFFF" d="M1006.29,314.998c0.641-4.619,2.761-7.439,7.13-7.936c3.358-0.382,5.578,1.471,7.007,4.418
		c1.129,2.328,1.035,3.684-2.136,3.556C1014.374,314.878,1010.446,314.998,1006.29,314.998z"/>
	<path fill="#FFFFFF" d="M1141.953,314.998c1.101-4.536,3.026-7.441,7.217-7.93c3.352-0.391,5.673,1.373,7.127,4.315
		c1.042,2.109,1.45,3.784-1.978,3.651C1150.36,314.88,1146.389,314.998,1141.953,314.998z"/>
	<path fill="#FFFFFF" d="M1083.99,316.308c0.134,4.929-3.66,9.21-8.41,9.488c-4.661,0.273-9.187-4.199-9.322-9.212
		c-0.128-4.776,3.85-9.246,8.454-9.499C1079.427,306.827,1083.852,311.226,1083.99,316.308z"/>
</g>
</svg>
