<svg xmlns="http://www.w3.org/2000/svg" width="300.331" height="32.754" viewBox="7.318 10 300.331 32.754" enable-background="new 7.318 10 300.331 32.754"><path d="M85.877 26.386c0 4.005-1.522 6.954-4.565 8.85-1.736 1.067-4.565 1.603-8.49 1.603H60.77V16.172h13.295c3.577 0 6.38.8 8.41 2.403 2.268 1.762 3.403 4.365 3.402 7.81zm-4.965-.08c0-4.298-2.27-6.448-6.808-6.448h-8.53v13.094h6.208c2.937 0 5.072-.373 6.408-1.118 1.814-1.017 2.723-2.858 2.722-5.53zm33.92 10.532h-4.647l-2.122-3.725H96.85l-2.122 3.724h-4.125l10.052-16.94h3.965l10.21 16.94zm-8.452-6.81l-3.966-7.048-3.804 7.048h7.77zm28.713-7.087h-8.208V36.84h-4.125V22.94h-8.168V19.9h20.503l-.002 3.043zM159.12 36.84h-4.645l-2.12-3.725H141.14l-2.122 3.724h-4.125l10.05-16.94h3.967l10.21 16.94zm-8.45-6.81l-3.964-7.048-3.804 7.048h7.77zm39.205 1.924c0 1.92-.366 3.217-1.1 3.885-.735.668-2.077 1-4.025 1h-15.217c-1.95 0-3.292-.332-4.024-1-.737-.668-1.104-1.964-1.104-3.885V21.06c0-1.922.367-3.217 1.102-3.885.734-.666 2.076-1 4.025-1h15.217c1.95 0 3.29.334 4.025 1 .734.668 1.1 1.963 1.1 3.887v10.89zm-4.804 1V19.858h-15.858V32.95l15.86.002zm34.36 3.886h-2.844L202.25 25.424v11.414h-3.764v-16.94h2.843l14.376 11.254V19.897h3.724v16.94zm25.027 0h-17.46v-16.94h4.166v13.776h13.294v3.164zm8.77 0h-4.124v-16.94h4.125v16.94zm28.472 0h-2.844L264.52 25.424v11.414h-3.765v-16.94h2.844l14.376 11.254V19.897h3.724v16.94zm25.947 0h-18.38v-16.94h18.18V22.9h-14.015v3.685h8.17v2.925h-8.17v4.163h14.216v3.165zM18.634 23.345c.013 1.105.918 1.987 2.028 1.976 1.105-.012 1.992-.914 1.98-2.017-.013-1.1-.92-1.988-2.024-1.978-1.108.013-1.994.926-1.984 2.02z" fill="#282973"/><path d="M32.2 25.45h8.042c.005-.202.003-.403.014-.604.062-1.213-.472-1.797-1.684-2.012-2.91-.517-3.59-2.302-1.942-4.826.26-.395.638-1.118.485-1.307-.968-1.208-1.958-2.463-3.192-3.358-.375-.272-1.594.444-2.328.877-1.22.722-3.69.003-4.032-1.272-.733-2.736-.81-2.958-3.26-2.948v8.072c4.076-.01 7.607 3.35 7.898 7.38z" fill="#23AF59"/><path d="M10.603 25.45h1.677c.446-5.506 4.77-9.933 10.23-10.54v-1.68c-6.383.615-11.452 5.79-11.907 12.22z" fill="none"/><path d="M7.428 25.397h3.164c.453-6.41 5.504-11.566 11.868-12.18v-3.163c-8.104.632-14.567 7.196-15.032 15.343zm4.836 0h3.17c.42-3.746 3.327-6.743 7.025-7.314v-3.19c-5.443.605-9.752 5.017-10.196 10.504zM10.862 27.353c.994 0 1.986.012 2.98-.01.39-.007.527.097.555.52.14 2.132.31 4.263.882 6.336.108.394.03.598-.428.715-1.29.326-2.523.83-3.705 1.44-.358.184-.523.146-.757-.177-1.794-2.465-2.755-5.232-3.064-8.248-.048-.46.112-.595.556-.582.993.023 1.986.006 2.98.005z" fill="#282973"/><path d="M36.235 27.353c.993 0 1.986.012 2.98-.01.417-.008.617.075.568.562-.304 3.02-1.266 5.79-3.06 8.26-.214.29-.355.403-.744.193-1.146-.62-2.373-1.074-3.628-1.42-.493-.137-.638-.3-.5-.803.546-2.024.72-4.108.854-6.188.03-.478.146-.624.627-.605.966.037 1.935.01 2.902.01z" fill="#23AF59"/><path d="M19.362 27.353c.968 0 1.936.017 2.903-.01.422-.01.603.093.595.562-.024 1.78-.02 3.558 0 5.334.002.408-.137.545-.543.545-1.73-.002-3.438.21-5.125.57-.362.077-.48-.052-.55-.337-.51-2.032-.75-4.1-.854-6.188-.02-.392.16-.486.515-.48 1.02.01 2.04.004 3.06.003zm8.465 0c.968 0 1.936.014 2.903-.007.42-.012.62.09.595.56-.103 2.04-.37 4.05-.826 6.036-.08.344-.22.487-.657.396-1.637-.34-3.292-.572-4.97-.55-.48.007-.63-.148-.625-.63.025-1.725.03-3.45 0-5.177-.012-.537.185-.655.678-.64.965.036 1.934.013 2.9.013zM22.85 39.04c0 1.016-.045 2.037.016 3.05.045.77-.25.736-.794.497-1.035-.454-1.81-1.205-2.5-2.073-1.033-1.3-1.71-2.784-2.282-4.328-.128-.345-.05-.453.297-.52 1.59-.297 3.19-.466 4.808-.513.414-.01.463.187.46.52-.01 1.122-.005 2.245-.005 3.366zm1.41-.092c0-1.068.014-2.14-.008-3.208-.008-.417.08-.602.556-.588 1.567.053 3.115.23 4.656.505.37.064.496.142.347.544-.728 1.973-1.632 3.833-3.174 5.315-.51.49-1.092.876-1.757 1.14-.462.186-.648.143-.63-.418.036-1.094.01-2.19.01-3.29z" fill="#282973"/><path d="M28.05 42.194c1.434-1.7 2.43-3.63 3.13-5.723.114-.338.294-.345.597-.26 1.13.317 2.216.745 3.285 1.227.387.175.356.337.082.612-1.99 1.995-4.325 3.397-7.095 4.144z" fill="#23AF59"/><path d="M19.25 42.32c-2.966-.868-5.357-2.308-7.38-4.375-.21-.214-.167-.327.088-.454 1.123-.554 2.3-.963 3.493-1.325.264-.08.388.06.463.284.356 1.063.81 2.082 1.336 3.073.51.963 1.178 1.82 2 2.798z" fill="#282973"/></svg>