<?xml version="1.0" encoding="utf-8"?>
<!-- Generator: Adobe Illustrator 20.1.0, SVG Export Plug-In . SVG Version: 6.00 Build 0)  -->
<svg version="1.1" id="Layer_1" xmlns="http://www.w3.org/2000/svg" xmlns:xlink="http://www.w3.org/1999/xlink" x="0px" y="0px"
	 viewBox="0 0 841.9 311.8" style="enable-background:new 0 0 841.9 311.8;" xml:space="preserve">
<style type="text/css">
	.st0{fill:#2670AC;}
</style>
<g id="Layer_x0020_1">
	<g id="_133659552">
		<path d="M756.9,75.3h-1.3l-1.8-4.2H751v4.2h-1.2v-9.7h3.8c1,0,1.8,0.3,2.3,0.9c0.5,0.5,0.8,1.2,0.8,1.8c0,0.5-0.1,1-0.4,1.4
			c-0.3,0.5-0.8,0.8-1.4,1L756.9,75.3z M751,70.1h2.5c0.6,0,1.2-0.1,1.6-0.5c0.4-0.4,0.5-0.8,0.5-1.3s-0.1-0.9-0.5-1.2
			s-0.8-0.4-1.3-0.4H751v3.5V70.1z M753.2,62c2.3,0,4.5,0.9,6.1,2.5l0,0c1.6,1.6,2.5,3.8,2.5,6.1c0,2.3-0.9,4.5-2.5,6.1l0,0
			c-1.6,1.6-3.8,2.5-6.1,2.5c-2.3,0-4.5-0.9-6.1-2.5l0,0c-1.6-1.6-2.5-3.8-2.5-6.1c0-2.3,0.9-4.5,2.5-6.1l0,0
			C748.7,62.9,750.9,62,753.2,62z M758.3,65.5c-1.3-1.3-3.1-2.1-5.1-2.1s-3.8,0.8-5.1,2.1l0,0c-1.3,1.3-2.1,3.1-2.1,5.1
			c0,1.9,0.8,3.8,2.1,5.1l0,0c1.3,1.3,3.1,2.1,5.1,2.1s3.8-0.8,5.1-2.1l0,0c1.3-1.3,2.1-3.1,2.1-5.1
			C760.4,68.6,759.6,66.8,758.3,65.5L758.3,65.5z"/>
		<path class="st0" d="M107.9,226.9c15.2,7.8,32.5,13.6,55.4,13.3c88.2-1,109.1-107.1,58.5-138.4c-10.4-6.5-22.9-8.2-35.2-4.3
			c-15.5,5.1-17.4,26.5-0.6,32.7c-9.4-0.5-14.6-6.9-16.5-13.6c-2.7-9.7-0.1-21.2,6.8-29c15.2-16.9,44-18.1,66.9-5.8
			c45.7,24.6,51.1,93.9,22.2,132.4C237.2,255.5,168.6,281.5,107.9,226.9z"/>
		<path class="st0" d="M110.4,83.6c-14.8,27.4-14.6,54.8,7.8,77.8c22.3,22.9,57,22,78,7.1c16-11.2,22.1-32.1,12.5-49.5
			c-13.8-20.1-36.9-8.6-25.2,6.8c-2.7-1.2-4.5-3.4-5.5-6.2c-3.6-12,12.6-24.8,31.6-11.6c42.1,29.4,16.9,104.9-40,114
			C85.3,232.6,49.9,148,110.4,83.6z"/>
		<path class="st0" d="M230.5,67.1c-54.7-14.2-76.8,19.2-75.2,46c0.6,18.6,18.1,32.5,32,26c5.7-2.6,10-8.1,10.3-14.4
			c0.4-9.5-10.5-12.2-14.3-5.5c3.6-15.1,27.8-3.4,21.3,18.6c-12.5,42.4-99.8,27.8-90-37.9c7.8-52.4,84.2-54.8,116.2-32.7H230.5z"/>
		<path d="M612.4,256.8H631v-76.5v-5.7c15.6,15.6,30.1,22.7,53.7,22.7c42.5-1.4,70.3-30.4,70-72.8c0-38.2-26.5-69.6-66.8-70.4
			c-25.9,0-42.2,9.5-56.8,24.6V58.2h-18.6v30v92.1v76.5L612.4,256.8z M631,145.3V107c7.7-20.4,27.4-35,50.5-35
			c29.9,0,55.4,24.2,55.4,54.1s-25.5,54.1-55.4,54.1c-23.1,0-42.9-14.6-50.5-35V145.3z M484.2,112.7c5.1-25.6,22.5-40.2,49.1-40.3
			c25.6,0.1,43.7,15.1,47.8,40.3H484.2z M583.5,153.7c-12.7,18.3-24.4,26.2-48.9,26.4c-28.8-0.1-50.3-19.2-51.1-49.5h117.7
			c0.6-44.3-22.1-75.9-69.5-75.9c-41.2,0.1-66.7,32.4-66.8,70.9c0.1,40.3,26.1,72.1,67.8,72.2c30.4,0.4,46.4-9.9,65.1-32.2
			l-14.4-11.8V153.7z M431.9,147.2v-44c-6.5-17.5-22.6-31.3-46.5-30.9c-29-1.6-51.7,21.4-51.7,53.3c-0.3,37.3,27.2,53.9,51.7,52.6
			C409.9,178.2,423.8,165.4,431.9,147.2z M329.2,246.1l0.1-22c28.2,22.5,82.4,19.2,100.1-16.1c4.5-9.1,3.2-27.3,3.2-37.9
			c-9,15.7-26.6,27-51.2,26.4c-36.3,0-65.6-31.7-65.6-70.9c0-39.1,29.8-70.6,65.6-70.9c22.9-0.6,41.2,8.7,50.4,23.5V58.2h22.6v118.9
			c0,6.8,0.3,11.6,0,16.2c-0.8,12.2-6.1,26.4-13.6,36c-26.5,33.5-84.3,31.3-111.6,16.5V246.1z"/>
	</g>
</g>
</svg>
